{
  "accessors": [
    {
      "bufferView": 2,
      "componentType": 5126,
      "count": 3682,
      "max": [
        0.2529999911785126,
        1.1589999198913574,
        0.42250075936317444
      ],
      "min": [
        -0.2529999911785126,
        0.0,
        -0.7425007820129395
      ],
      "type": "VEC3"
    },
    {
      "bufferView": 2,
      "byteOffset": 44184,
      "componentType": 5126,
      "count": 3682,
      "max": [
        1.0,
        1.0,
        1.0
      ],
      "min": [
        -1.0,
        -1.0,
        -1.0
      ],
      "type": "VEC3"
    },
    {
      "bufferView": 0,
      "componentType": 5125,
      "count": 17814,
      "type": "SCALAR"
    },
    {
      "bufferView": 2,
      "byteOffset": 88368,
      "componentType": 5126,
      "count": 368,
      "max": [
        0.03553120046854019,
        1.1645596027374268,
        -0.45733287930488586
      ],
      "min": [
        -0.03553120046854019,
        1.1507458686828613,
        -0.48636505007743835
      ],
      "type": "VEC3"
    },
    {
      "bufferView": 2,
      "byteOffset": 92784,
      "componentType": 5126,
      "count": 368,
      "max": [
        0.9999997019767761,
        0.9999417662620544,
        0.9895679950714111
      ],
      "min": [
        -0.9999997019767761,
        -0.9997811317443848,
        -0.9895679950714111
      ],
      "type": "VEC3"
    },
    {
      "bufferView": 1,
      "componentType": 5126,
      "count": 368,
      "max": [
        0.0,
        0.0
      ],
      "min": [
        0.0,
        0.0
      ],
      "type": "VEC2"
    },
    {
      "bufferView": 0,
      "byteOffset": 71256,
      "componentType": 5125,
      "count": 2184,
      "type": "SCALAR"
    },
    {
      "bufferView": 2,
      "byteOffset": 97200,
      "componentType": 5126,
      "count": 45444,
      "max": [
        0.2503923773765564,
        0.9743127822875977,
        0.3005754351615906
      ],
      "min": [
        -0.2503923773765564,
        0.03617297112941742,
        -0.23612646758556366
      ],
      "type": "VEC3"
    },
    {
      "bufferView": 2,
      "byteOffset": 642528,
      "componentType": 5126,
      "count": 45444,
      "max": [
        1.0,
        1.0,
        1.0
      ],
      "min": [
        -1.0,
        -1.0,
        -1.0
      ],
      "type": "VEC3"
    },
    {
      "bufferView": 0,
      "byteOffset": 79992,
      "componentType": 5125,
      "count": 149598,
      "type": "SCALAR"
    },
    {
      "bufferView": 2,
      "byteOffset": 1187856,
      "componentType": 5126,
      "count": 3169,
      "max": [
        0.2047923505306244,
        1.158995509147644,
        0.0
      ],
      "min": [
        -0.2047923505306244,
        0.0600101463496685,
        -0.5
      ],
      "type": "VEC3"
    },
    {
      "bufferView": 2,
      "byteOffset": 1225884,
      "componentType": 5126,
      "count": 3169,
      "max": [
        1.0,
        1.0,
        1.0
      ],
      "min": [
        -1.0,
        -1.0,
        -1.0
      ],
      "type": "VEC3"
    },
    {
      "bufferView": 0,
      "byteOffset": 678384,
      "componentType": 5125,
      "count": 14082,
      "type": "SCALAR"
    },
    {
      "bufferView": 2,
      "byteOffset": 1263912,
      "componentType": 5126,
      "count": 740,
      "max": [
        0.2503923773765564,
        1.0164740085601807,
        -0.20512647926807404
      ],
      "min": [
        -0.2503923773765564,
        0.07483077794313431,
        -0.6728383898735046
      ],
      "type": "VEC3"
    },
    {
      "bufferView": 2,
      "byteOffset": 1272792,
      "componentType": 5126,
      "count": 740,
      "max": [
        1.0,
        1.0,
        0.9999142289161682
      ],
      "min": [
        -1.0,
        -1.0,
        -0.9999142289161682
      ],
      "type": "VEC3"
    },
    {
      "bufferView": 1,
      "byteOffset": 2944,
      "componentType": 5126,
      "count": 740,
      "max": [
        0.0,
        0.0
      ],
      "min": [
        0.0,
        0.0
      ],
      "type": "VEC2"
    },
    {
      "bufferView": 0,
      "byteOffset": 734712,
      "componentType": 5125,
      "count": 2196,
      "type": "SCALAR"
    },
    {
      "bufferView": 2,
      "byteOffset": 1281672,
      "componentType": 5126,
      "count": 104,
      "max": [
        0.17299999296665192,
        1.0164740085601807,
        -0.5001797080039978
      ],
      "min": [
        -0.17299999296665192,
        0.05999999865889549,
        -0.6728383898735046
      ],
      "type": "VEC3"
    },
    {
      "bufferView": 2,
      "byteOffset": 1282920,
      "componentType": 5126,
      "count": 104,
      "max": [
        0.9980267882347107,
        1.0,
        -0.0
      ],
      "min": [
        -0.9980267882347107,
        -1.0,
        -0.9980266690254211
      ],
      "type": "VEC3"
    },
    {
      "bufferView": 1,
      "byteOffset": 8864,
      "componentType": 5126,
      "count": 104,
      "max": [
        0.0,
        0.0
      ],
      "min": [
        0.0,
        0.0
      ],
      "type": "VEC2"
    },
    {
      "bufferView": 0,
      "byteOffset": 743496,
      "componentType": 5125,
      "count": 294,
      "type": "SCALAR"
    },
    {
      "bufferView": 2,
      "byteOffset": 1284168,
      "componentType": 5126,
      "count": 78,
      "max": [
        0.17286159098148346,
        0.7232618927955627,
        -0.5003178119659424
      ],
      "min": [
        -0.17286159098148346,
        0.05999999865889549,
        -0.6728383898735046
      ],
      "type": "VEC3"
    },
    {
      "bufferView": 2,
      "byteOffset": 1285104,
      "componentType": 5126,
      "count": 78,
      "max": [
        0.9980267882347107,
        1.0,
        -0.0
      ],
      "min": [
        -0.9980267882347107,
        -0.0,
        -0.9980267286300659
      ],
      "type": "VEC3"
    },
    {
      "bufferView": 1,
      "byteOffset": 9696,
      "componentType": 5126,
      "count": 78,
      "max": [
        0.0,
        0.0
      ],
      "min": [
        0.0,
        0.0
      ],
      "type": "VEC2"
    },
    {
      "bufferView": 0,
      "byteOffset": 744672,
      "componentType": 5125,
      "count": 222,
      "type": "SCALAR"
    }
  ],
  "asset": {
    "extras": {
      "author": "davidinlines (https://sketchfab.com/davidinlines)",
      "license": "CC-BY-SA-4.0 (http://creativecommons.org/licenses/by-sa/4.0/)",
      "source": "https://sketchfab.com/3d-models/nespresso-machine-2-d36ef2c992c54ae2817db84fbb620630",
      "title": "Nespresso Machine 2"
    },
    "generator": "Sketchfab-15.81.0",
    "version": "2.0"
  },
  "bufferViews": [
    {
      "buffer": 0,
      "byteLength": 745560,
      "name": "floatBufferViews",
      "target": 34963
    },
    {
      "buffer": 0,
      "byteLength": 10320,
      "byteOffset": 745560,
      "byteStride": 8,
      "name": "floatBufferViews",
      "target": 34962
    },
    {
      "buffer": 0,
      "byteLength": 1286040,
      "byteOffset": 755880,
      "byteStride": 12,
      "name": "floatBufferViews",
      "target": 34962
    }
  ],
  "buffers": [
    {
      "byteLength": 2041920,
      "uri": "scene.bin"
    }
  ],
  "extensionsUsed": [
    "KHR_materials_transmission"
  ],
  "materials": [
    {
      "doubleSided": true,
      "name": "plastic",
      "pbrMetallicRoughness": {
        "baseColorFactor": [
          0.0125,
          0.0125,
          0.0125,
          1.0
        ],
        "metallicFactor": 0.5114619944394901,
        "roughnessFactor": 0.3486509643462904
      }
    },
    {
      "doubleSided": true,
      "name": "buttons",
      "pbrMetallicRoughness": {
        "baseColorFactor": [
          0.5,
          1.0,
          0.0,
          1.0
        ],
        "metallicFactor": 0.0,
        "roughnessFactor": 0.9577051494623774
      }
    },
    {
      "doubleSided": true,
      "name": "metal",
      "pbrMetallicRoughness": {
        "baseColorFactor": [
          0.2,
          0.2,
          0.2,
          1.0
        ],
        "roughnessFactor": 0.05721962848333306
      }
    },
    {
      "doubleSided": true,
      "name": "chassis",
      "pbrMetallicRoughness": {
        "baseColorFactor": [
          0.0,
          0.05729783433459911,
          0.05729783433459911,
          1.0
        ],
        "metallicFactor": 0.0,
        "roughnessFactor": 0.1155058956559245
      }
    },
    {
      "doubleSided": true,
      "name": "default_material",
      "pbrMetallicRoughness": {
        "baseColorFactor": [
          0.756863,
          0.756863,
          0.756863,
          1.0
        ],
        "metallicFactor": 0.0,
        "roughnessFactor": 0.6
      }
    },
    {
      "alphaMode": "BLEND",
      "doubleSided": true,
      "name": "glass",
      "pbrMetallicRoughness": {
        "baseColorFactor": [
          0.2,
          0.2,
          0.2,
          0.109286750948609
        ],
        "metallicFactor": 0.0,
        "roughnessFactor": 0.9577051494623774
      }
    },
    {
      "alphaMode": "BLEND",
      "doubleSided": true,
      "extensions": {
        "KHR_materials_transmission": {
          "transmissionFactor": 1.0
        }
      },
      "name": "water",
      "pbrMetallicRoughness": {
        "baseColorFactor": [
          0.2,
          0.2,
          0.2,
          0.25
        ],
        "metallicFactor": 0.0,
        "roughnessFactor": 0.9577051494623774
      }
    }
  ],
  "meshes": [
    {
      "name": "geo1_plastic_0",
      "primitives": [
        {
          "attributes": {
            "NORMAL": 1,
            "POSITION": 0
          },
          "indices": 2,
          "material": 0,
          "mode": 4
        }
      ]
    },
    {
      "name": "geo1_buttons_0",
      "primitives": [
        {
          "attributes": {
            "NORMAL": 4,
            "POSITION": 3,
            "TEXCOORD_0": 5
          },
          "indices": 6,
          "material": 1,
          "mode": 4
        }
      ]
    },
    {
      "name": "geo1_metal_0",
      "primitives": [
        {
          "attributes": {
            "NORMAL": 8,
            "POSITION": 7
          },
          "indices": 9,
          "material": 2,
          "mode": 4
        }
      ]
    },
    {
      "name": "geo1_chassis_0",
      "primitives": [
        {
          "attributes": {
            "NORMAL": 11,
            "POSITION": 10
          },
          "indices": 12,
          "material": 3,
          "mode": 4
        }
      ]
    },
    {
      "name": "geo1_default_material_0",
      "primitives": [
        {
          "attributes": {
            "NORMAL": 14,
            "POSITION": 13,
            "TEXCOORD_0": 15
          },
          "indices": 16,
          "material": 4,
          "mode": 4
        }
      ]
    },
    {
      "name": "geo1_glass_0",
      "primitives": [
        {
          "attributes": {
            "NORMAL": 18,
            "POSITION": 17,
            "TEXCOORD_0": 19
          },
          "indices": 20,
          "material": 5,
          "mode": 4
        }
      ]
    },
    {
      "name": "geo1_water_0",
      "primitives": [
        {
          "attributes": {
            "NORMAL": 22,
            "POSITION": 21,
            "TEXCOORD_0": 23
          },
          "indices": 24,
          "material": 6,
          "mode": 4
        }
      ]
    }
  ],
  "nodes": [
    {
      "children": [
        1
      ],
      "matrix": [
        1.0,
        0.0,
        0.0,
        0.0,
        0.0,
        2.220446049250313e-16,
        -1.0,
        0.0,
        0.0,
        1.0,
        2.220446049250313e-16,
        0.0,
        0.0,
        0.0,
        0.0,
        1.0
      ],
      "name": "Sketchfab_model"
    },
    {
      "children": [
        2
      ],
      "matrix": [
        0.009999999776482582,
        0.0,
        0.0,
        0.0,
        0.0,
        0.0,
        0.009999999776482582,
        0.0,
        0.0,
        -0.009999999776482582,
        0.0,
        0.0,
        0.0,
        0.0,
        0.0,
        1.0
      ],
      "name": "mesh.fbx"
    },
    {
      "children": [
        3
      ],
      "name": "RootNode"
    },
    {
      "children": [
        4,
        5,
        6,
        7,
        8,
        9,
        10
      ],
      "name": "geo1"
    },
    {
      "mesh": 0,
      "name": "geo1_plastic_0"
    },
    {
      "mesh": 1,
      "name": "geo1_buttons_0"
    },
    {
      "mesh": 2,
      "name": "geo1_metal_0"
    },
    {
      "mesh": 3,
      "name": "geo1_chassis_0"
    },
    {
      "mesh": 4,
      "name": "geo1_default_material_0"
    },
    {
      "mesh": 5,
      "name": "geo1_glass_0"
    },
    {
      "mesh": 6,
      "name": "geo1_water_0"
    }
  ],
  "scene": 0,
  "scenes": [
    {
      "name": "Sketchfab_Scene",
      "nodes": [
        0
      ]
    }
  ]
}
